<svg width="18" height="19" viewBox="0 0 18 19" fill="none" xmlns="http://www.w3.org/2000/svg">
<g id="book-open-01">
<path id="Icon" d="M9 16L8.92496 15.8874C8.40398 15.106 8.14349 14.7152 7.79933 14.4324C7.49464 14.1819 7.14357 13.9941 6.7662 13.8795C6.33994 13.75 5.87033 13.75 4.93112 13.75H3.9C3.05992 13.75 2.63988 13.75 2.31901 13.5865C2.03677 13.4427 1.8073 13.2132 1.66349 12.931C1.5 12.6101 1.5 12.1901 1.5 11.35V4.9C1.5 4.05992 1.5 3.63988 1.66349 3.31901C1.8073 3.03677 2.03677 2.8073 2.31901 2.66349C2.63988 2.5 3.05992 2.5 3.9 2.5H4.2C5.88016 2.5 6.72024 2.5 7.36197 2.82698C7.92646 3.1146 8.3854 3.57354 8.67302 4.13803C9 4.77976 9 5.61984 9 7.3M9 16V7.3M9 16L9.07504 15.8874C9.59602 15.106 9.85651 14.7152 10.2007 14.4324C10.5054 14.1819 10.8564 13.9941 11.2338 13.8795C11.6601 13.75 12.1297 13.75 13.0689 13.75H14.1C14.9401 13.75 15.3601 13.75 15.681 13.5865C15.9632 13.4427 16.1927 13.2132 16.3365 12.931C16.5 12.6101 16.5 12.1901 16.5 11.35V4.9C16.5 4.05992 16.5 3.63988 16.3365 3.31901C16.1927 3.03677 15.9632 2.8073 15.681 2.66349C15.3601 2.5 14.9401 2.5 14.1 2.5H13.8C12.1198 2.5 11.2798 2.5 10.638 2.82698C10.0735 3.1146 9.6146 3.57354 9.32698 4.13803C9 4.77976 9 5.61984 9 7.3" stroke="#937DC2" stroke-width="2" stroke-linecap="round" stroke-linejoin="round"/>
</g>
</svg>
